# xmcd
#
# Track frame offsets:
#	150
#	13926
#	33612
#	52107
#	66263
#	82396
#	100981
#	116873
#	126862
#	142408
#	160225
#	173374
#	189976
#
# Disc length: 2823 seconds
#
# Revision: 1
# Processed by: cddbd v1.5.1PL2 Copyright (c) Steve Scherf et al.
# Submitted via: audiograbber 1.83.01
#
DISCID=c40b050d
DTITLE=The Hucklebucks - Everybody's In The Mood
DYEAR=1998
DGENRE=Blues
TTITLE0=Roll All Night
TTITLE1=Party Time
TTITLE2=Alimony Blues
TTITLE3=Sherry Ann
TTITLE4=Everybody's In The Mood
TTITLE5=It's Too Late
TTITLE6=Jive Train
TTITLE7=Cherry Wine
TTITLE8=Sugar Pie
TTITLE9=Chump Change
TTITLE10=I Got Eyes
TTITLE11=Change Your Ways
TTITLE12=Solid Scene
EXTD=
EXTT0=
EXTT1=
EXTT2=
EXTT3=
EXTT4=
EXTT5=
EXTT6=
EXTT7=
EXTT8=
EXTT9=
EXTT10=
EXTT11=
EXTT12=
PLAYORDER=
